<svg xmlns="http://www.w3.org/2000/svg" xmlns:xlink="http://www.w3.org/1999/xlink" width="39" height="28" version="1.1" style=""><rect id="backgroundrect" width="100%" height="100%" x="0" y="0" fill="none" stroke="none"/>
    <!-- Generator: sketchtool 49 (51002) - http://www.bohemiancoding.com/sketch -->
    <title>4AAA819D-CB49-45B0-A035-B793645D07AD</title>
    <desc>Created with sketchtool.</desc>
    <defs/>
    
<g class="currentLayer" style=""><title>Layer 1</title><g id="Page-1" stroke="none" stroke-width="1" class="selected" fill-opacity="1" fill="#999999">
        <g id="Onboarding---1---Create-an-account---Filled" fill="#999999">
            <g id="Group-13" fill="#999999">
                <g id="Group-14" fill="#999999">
                    <g id="Stacked-Group" fill="#999999">
                        <path d="M0,0.461582605999979 L5.924938129999987,0.461582605999979 L5.924938129999987,16.618020300000012 C5.924938129999987,19.181358899999964 7.065436200000022,20.693944999999985 7.993331850000004,21.34213639999996 C7.026796190000027,22.19661050000002 4.098106239999993,22.962677699999972 1.8847507099999916,21.116263600000025 C0.5895690360000003,20.035874799999988 0,18.238561600000025 0,16.559040500000037 L0,0.461582605999979 zM37.00892750000003,13.88757940000005 L37.00892750000003,12.188468199999988 L38.82603760000001,12.188468199999988 L38.82603760000001,6.246455470000001 L36.83496509999998,6.246455470000001 C36.07135119999998,2.6616242000000057 32.93973949999997,0 29.189599199999975,0 C24.878766999999982,0 21.370271000000002,3.565241109999988 21.370271000000002,7.945608559999982 L21.370271000000002,21.823351000000002 C22.5977709,22.000164799999993 24.066956199999993,21.803719 25.31377600000002,20.733167200000025 C26.60891650000002,19.652862099999993 27.1985679,17.855507099999954 27.1985679,16.175985999999966 L27.1985679,15.655549199999996 L30.156134899999984,15.655549199999996 L30.156134899999984,9.703657700000008 L27.1985679,9.703657700000008 L27.1985679,7.9063026699999455 C27.1985679,6.786691720000022 28.08778239999998,5.883074800000031 29.189599199999975,5.883074800000031 C30.29145729999999,5.883074800000031 31.180671800000027,6.786691720000022 31.180671800000027,7.9063026699999455 L31.180671800000027,13.867947400000048 C31.180671800000027,18.258193600000027 34.689250200000004,21.823351000000002 39,21.823351000000002 L39,15.891217099999949 C37.898141899999985,15.891217099999949 37.00892750000003,14.997478999999998 37.00892750000003,13.88757940000005 zM14.594799599999988,6.2268234499999835 L14.594799599999988,14.977805099999955 C14.594799599999988,15.468898500000023 14.179234199999996,15.871585099999947 13.68626519999998,15.871585099999947 C13.193296099999998,15.871585099999947 12.787370099999976,15.468898500000023 12.787370099999976,14.977805099999955 L12.787370099999976,6.2268234499999835 L6.9301549799999975,6.2268234499999835 L6.9301549799999975,16.49026570000001 C6.9301549799999975,18.33676360000004 7.539044020000006,20.67427109999994 10.361329800000021,21.44038020000005 C13.174017300000003,22.19661050000002 14.788081999999974,20.61537510000005 14.788081999999974,20.61537510000005 C14.633439599999974,21.6564161 13.68626519999998,22.422525199999995 12.13011929999999,22.579664999999977 C10.950940000000003,22.69745709999995 9.452795330000015,22.294770599999993 8.708542690000002,21.98049089999995 L8.708542690000002,27.421656999999982 C10.612654599999985,28.001157199999966 12.623047100000008,28.187682300000006 14.61416079999998,27.78503760000001 C18.200019199999986,27.087745199999972 20.461695399999996,24.04306650000001 20.461695399999996,19.976978700000018 L20.461695399999996,6.187517559999947 L14.594799599999988,6.187517559999947 L14.594799599999988,6.2268234499999835 z" id="Fill-3" fill="#999999"/>
                    </g>
                </g>
            </g>
        </g>
    </g></g></svg>