<svg xmlns="http://www.w3.org/2000/svg" width="66" height="17" style=""><rect id="backgroundrect" width="100%" height="100%" x="0" y="0" fill="none" stroke="none"/>
  <defs>
    <radialGradient id="asana-a" cx="20.109%" cy="10.313%" r="50.054%" fx="20.109%" fy="10.313%" gradientTransform="matrix(.59665 .79219 -.7745 .61028 .161 -.12)">
      <stop offset="0%" stop-color="#FFB900"/>
      <stop offset="60%" stop-color="#F95D8F"/>
      <stop offset="99.91%" stop-color="#F95353"/>
    </radialGradient>
    <radialGradient id="asana-b" cx="14.751%" cy="86.499%" r="51.26%" fx="14.751%" fy="86.499%" gradientTransform="scale(.9776 1) rotate(-45.349 .15 .86)">
      <stop offset="0%" stop-color="#FFB900"/>
      <stop offset="60%" stop-color="#F95D8F"/>
      <stop offset="99.91%" stop-color="#F95353"/>
    </radialGradient>
    <radialGradient id="asana-c" cx="0%" cy="54.652%" r="67.653%" fx="0%" fy="54.652%" gradientTransform="scale(.97769 1)">
      <stop offset="0%" stop-color="#FFB900"/>
      <stop offset="60%" stop-color="#F95D8F"/>
      <stop offset="99.91%" stop-color="#F95353"/>
    </radialGradient>
  </defs>
  
<g class="currentLayer" style=""><title>Layer 1</title><g id="svg_1" class="" fill="#b6b6b6" fill-opacity="1">
    <path d="M13.2961936,9.43011727 C11.3307326,9.43011727 9.73770492,10.9875298 9.73770492,12.9087187 C9.73770492,14.8300728 11.3307326,16.3878159 13.2961936,16.3878159 C15.2613166,16.3878159 16.8543443,14.8300728 16.8543443,12.9087187 C16.8543443,10.9875298 15.2613166,9.43011727 13.2961936,9.43011727 Z" id="svg_2" fill="#b6b6b6" fill-opacity="1"/>
    <path d="M0,12.9087187 C0,14.8299075 1.59319672,16.3874853 3.55831967,16.3874853 C5.52361168,16.3874853 7.1168084,14.8299075 7.1168084,12.9087187 C7.1168084,10.9873645 5.52361168,9.43011727 3.55815061,9.43011727 C1.59319672,9.43028255 0,10.9873645 0,12.9087187 Z" transform="rotate(-180 3.558000087738037,12.909000396728516) " id="svg_3" fill="#b6b6b6" fill-opacity="1"/>
    <path d="M11.4288617,4.42424886 C11.4288617,6.34543775 9.83583408,7.90334609 7.87071113,7.90334609 C5.90525007,7.90334609 4.3122224,6.34543775 4.3122224,4.42424886 C4.3122224,2.50305998 5.90525007,0.945482198 7.87071113,0.945482198 C9.83583408,0.945482198 11.4286927,2.50305998 11.4286927,4.42424886 L11.4288617,4.42424886 Z" transform="rotate(-90 7.869999885559083,4.423999786376954) " id="svg_4" fill="#b6b6b6" fill-opacity="1"/>
    <path d="M26.7854508,11.2185288 C25.3592828,11.2185288 24.2032684,10.0760962 24.2032684,8.66656731 C24.2032684,7.25720192 25.3592828,6.11460577 26.7856199,6.11460577 C28.2117879,6.11460577 29.3676332,7.25720192 29.3676332,8.66656731 C29.3676332,10.0760962 28.2117879,11.2185288 26.7856199,11.2185288 L26.7854508,11.2185288 Z M29.375917,11.5421827 C29.375917,11.7759327 29.7901076,12.4323942 30.2976178,12.4323942 L30.6262654,12.4323942 C30.7537346,12.4323942 30.857874,12.3315385 30.857874,12.2084519 L30.857874,5.22455769 L30.8566906,5.22455769 C30.8500623,5.10606612 30.7489916,5.01314466 30.6262654,5.01271154 L29.6078637,5.01271154 C29.4846209,5.01271154 29.3840318,5.10702885 29.3771004,5.22455769 L29.375917,5.22455769 L29.375917,5.79209615 C28.7520953,5.049 27.7681814,4.74054808 26.7815625,4.74054808 C24.5390164,4.74054808 22.7213115,6.49825 22.7213115,8.66673077 C22.7213115,10.8352115 24.5390164,12.5929135 26.7815625,12.5929135 C27.7681814,12.5929135 28.8433863,12.2228365 29.375917,11.5413654 L29.375917,11.5425096 L29.375917,11.5421827 Z M33.2912859,10.542125 C33.9710656,10.9973654 34.7132275,11.2185288 35.4263115,11.2185288 C36.1059221,11.2185288 36.8080174,10.877875 36.8080174,10.2851635 C36.8080174,9.49400962 35.277541,9.37075962 34.3161117,9.05478846 C33.3541752,8.73881731 32.5257941,8.08546154 32.5257941,7.02753846 C32.5257941,5.40894231 34.0175564,4.74038462 35.4099129,4.74038462 C36.2920543,4.74038462 37.2020902,5.02153846 37.7922695,5.42463462 C37.9956455,5.57338462 37.8717264,5.74452885 37.8717264,5.74452885 L37.3084273,6.52227885 C37.2451998,6.60989423 37.1140113,6.67985577 36.9755533,6.59076923 C36.5960195,6.34819231 36.173376,6.11444231 35.4097439,6.11444231 C34.4645441,6.11444231 34.048832,6.49383654 34.048832,6.96395192 C34.048832,7.52789423 34.7137346,7.70508654 35.492582,7.89731731 C36.8501127,8.25088462 38.3310553,8.676375 38.3310553,10.2853269 C38.3310553,11.7115288 36.951209,12.5929135 35.4263115,12.5929135 C34.2708043,12.5929135 33.2868904,12.2743269 32.4617213,11.6889712 C32.289959,11.5225673 32.4099898,11.3680962 32.4099898,11.3680962 L32.970415,10.5942692 C33.0845287,10.4494423 33.2282275,10.5001154 33.2912859,10.542125 Z M45.9688986,11.5423462 C45.9688986,11.7759327 46.3829201,12.4323942 46.8902613,12.4323942 L47.2190779,12.4323942 C47.3465471,12.4323942 47.4508555,12.3315385 47.4508555,12.2084519 L47.4508555,5.22455769 L47.4495031,5.22455769 C47.44271,5.10613971 47.3417364,5.01330751 47.2190779,5.01271154 L46.2006762,5.01271154 C46.0772643,5.01271154 45.9768443,5.10702885 45.970082,5.22455769 L45.9688986,5.22455769 L45.9688986,5.79209615 C45.3449078,5.049 44.3609939,4.74054808 43.3745441,4.74054808 C41.131998,4.74054808 39.3139549,6.49825 39.3139549,8.66656731 C39.3139549,10.8348846 41.131998,12.59275 43.3745441,12.59275 C44.3609939,12.59275 45.4361988,12.2226731 45.9687295,11.5412019 L45.9687295,11.5423462 L45.9688986,11.5423462 Z M43.3784324,11.2186923 C41.9520953,11.2186923 40.7960809,10.0760962 40.7960809,8.66656731 C40.7960809,7.25720192 41.9520953,6.11460577 43.3784324,6.11460577 C44.8044314,6.11460577 45.9606148,7.25720192 45.9606148,8.66656731 C45.9606148,10.0760962 44.8044314,11.2185288 43.3784324,11.2185288 L43.3784324,11.2186923 Z M56.5755584,11.7823077 L56.5752203,8.16866346 C56.5752203,6.13160577 55.2460912,4.75722115 53.1264498,4.75722115 C52.1148105,4.75722115 51.2871055,5.32296154 50.9941291,5.80893269 L50.9941291,5.80206731 L50.9924385,5.807625 C50.9917623,5.31593269 50.5792623,5.02954808 50.0707377,5.02954808 L49.7437807,5.02954808 C49.6161424,5.02954808 49.5120031,5.13056731 49.5120031,5.25381731 L49.5120031,12.237875 L49.5133555,12.237875 C49.5199488,12.3555673 49.620707,12.4498846 49.7437807,12.4498846 L50.7621824,12.4498846 C50.7777357,12.4498846 50.7931199,12.4480865 50.8078279,12.4454712 C50.8145902,12.444 50.8208453,12.4413846 50.8274385,12.4395865 C50.8352152,12.4374615 50.8429918,12.4356635 50.8500922,12.4327212 C50.8593904,12.429125 50.8675051,12.4242212 50.875958,12.4196442 C50.8800154,12.4171923 50.8844109,12.4155577 50.8884682,12.4131058 C50.8984649,12.4064704 50.9079564,12.3991504 50.9168699,12.3912019 C50.9183914,12.3897308 50.920251,12.38875 50.9216035,12.3874423 C50.9642169,12.3482245 50.9896334,12.2946856 50.9926076,12.237875 L50.9941291,12.237875 L50.9941291,8.11259615 C50.9941291,7.01854808 51.9114344,6.13144231 53.0431045,6.13144231 C54.1746055,6.13144231 55.0920799,7.01854808 55.0920799,8.11259615 L55.0927561,11.5609808 L55.0930943,11.5596731 C55.0930943,11.5627788 55.0937705,11.5660481 55.0937705,11.5691538 L55.0937705,12.237875 L55.095123,12.237875 C55.1018852,12.3555673 55.2023053,12.4498846 55.3255482,12.4498846 L56.3439498,12.4498846 C56.3596721,12.4498846 56.3747182,12.4480865 56.3895953,12.4454712 C56.3956814,12.4441635 56.4012602,12.4417115 56.4070082,12.4404038 C56.4154611,12.4379519 56.4239139,12.4358269 56.4320287,12.4327212 C56.4403125,12.4294519 56.4479201,12.4247115 56.4556967,12.4204615 C56.4605994,12.4180096 56.4656711,12.4160481 56.4702357,12.4131058 C56.4797029,12.4068942 56.4883248,12.3998654 56.4967777,12.3926731 C56.4989754,12.3910385 56.5013422,12.3894038 56.50354,12.3872788 C56.5130072,12.3784519 56.52146,12.3686442 56.5294057,12.3585096 C56.5561831,12.3236158 56.5718152,12.2819085 56.574375,12.2385288 L56.5745441,12.237875 L56.5757275,12.237875 L56.5757275,11.7823077 L56.5755584,11.7823077 Z M64.518043,11.5423462 C64.518043,11.7759327 64.9317264,12.4323942 65.4394057,12.4323942 L65.7682223,12.4323942 C65.8955225,12.4323942 66,12.3315385 66,12.2084519 L66,5.22455769 L65.9988166,5.22455769 C65.9919374,5.10611381 65.8909124,5.01330254 65.7682223,5.01271154 L64.7499898,5.01271154 C64.6271982,5.01305822 64.5260275,5.10600333 64.5193955,5.22455769 L64.518043,5.22455769 L64.518043,5.79209615 C63.8937141,5.049 62.9101383,4.74054808 61.9233504,4.74054808 C59.6811424,4.74054808 57.8630994,6.49825 57.8630994,8.66656731 C57.8630994,10.8348846 59.6811424,12.59275 61.9233504,12.59275 C62.9101383,12.59275 63.9851742,12.2226731 64.5175359,11.5412019 L64.518043,11.5423462 Z M61.9277459,11.2186923 C60.5014088,11.2186923 59.3453945,10.0760962 59.3453945,8.66656731 C59.3453945,7.25720192 60.5014088,6.11460577 61.9277459,6.11460577 C63.3534068,6.11460577 64.5094211,7.25720192 64.5094211,8.66656731 C64.5094211,10.0760962 63.3534068,11.2185288 61.9277459,11.2185288 L61.9277459,11.2186923 Z" id="svg_5" fill="#b6b6b6" fill-opacity="1"/>
  </g></g></svg>