<svg xmlns="http://www.w3.org/2000/svg" xmlns:xlink="http://www.w3.org/1999/xlink" width="79" height="14" version="1.1"><rect id="backgroundrect" width="100%" height="100%" x="0" y="0" fill="none" stroke="none"/>
    <!-- Generator: sketchtool 49 (51002) - http://www.bohemiancoding.com/sketch -->
    <title>2A98DF2E-883B-4447-991F-C1EDB8EB081F</title>
    <desc>Created with sketchtool.</desc>
    <defs/>
    
<g class="currentLayer" style=""><title>Layer 1</title><g id="Page-1" stroke="none" stroke-width="1" class="selected" fill-opacity="1" fill="#999999">
        <g id="Onboarding---1---Create-an-account---Filled" fill="#999999">
            <g id="Group-13" fill="#999999">
                <g id="Group-14" fill="#999999">
                    <g id="Stacked-Group" fill="#999999">
                        <path d="M29.968966000000023,6.061918699999978 C29.968966000000023,5.352558899999963 29.968334000000027,4.702301899999952 29.969914000000017,4.051981700000056 C29.970039999999983,3.9802614999999832 29.98189000000002,3.908541199999945 29.99032699999998,3.8155073000000357 L37.98342100000002,3.8155073000000357 C37.98342100000002,4.41987979999999 37.99005699999998,5.014544200000046 37.97643700000003,5.608765800000015 C37.97435200000001,5.698321200000009 37.886060999999984,5.792651699999965 37.82289300000002,5.873036500000012 C36.44655499999999,7.620884799999999 35.06800499999997,9.366993900000011 33.69065599999999,11.114020099999948 C33.622652000000016,11.200286699999992 33.56194900000003,11.2924352 33.45599400000003,11.440049799999997 L33.85725100000002,11.440049799999997 C35.158254,11.440049799999997 36.45941600000003,11.445520500000043 37.76054599999998,11.435338000000002 C38.00225399999999,11.433472299999949 38.09250400000002,11.492922900000053 38.08545700000002,11.750711000000024 C38.06776100000002,12.399165499999981 38.079611,13.04853700000001 38.079611,13.71707200000003 L29.97680200000002,13.71707200000003 C29.97680200000002,13.069502899999975 29.97162000000003,12.432590600000026 29.98334399999999,11.796089499999994 C29.984734000000003,11.716305499999976 30.06841099999997,11.632979699999964 30.12541699999997,11.56037409999999 C31.447024,9.876277100000038 32.770399999999995,8.193603000000053 34.093271000000016,6.510423100000025 C34.19426499999997,6.381782000000044 34.29314099999999,6.251433399999996 34.43925999999999,6.061855499999979 L29.968966000000023,6.061918699999978 zM25.616445,6.0593889000000445 L21.181353,6.0593889000000445 L21.181353,3.8114911999999777 L29.199284000000034,3.8114911999999777 C29.199284000000034,4.235614499999997 29.177986000000033,4.661793299999999 29.205510000000004,5.084936299999981 C29.230820999999988,5.475001900000052 29.11222600000002,5.776334399999996 28.866156999999987,6.082599899999991 C27.532669,7.743233000000032 26.22019499999999,9.420531099999948 24.900863000000015,11.092453399999954 C24.83004699999998,11.182135300000027 24.76273900000001,11.274536799999964 24.652455000000028,11.420254 L29.252499,11.420254 L29.252499,13.711316600000032 L21.15705300000002,13.711316600000032 C21.15705300000002,13.085535599999957 21.147856999999988,12.46000749999996 21.16574300000002,11.835143499999958 C21.16883999999999,11.727879400000006 21.276532999999972,11.616093200000023 21.35240399999998,11.519454300000007 C22.705959000000007,9.794342700000016 24.06219900000002,8.071476299999972 25.41704900000002,6.347376599999961 C25.473423000000025,6.275435000000016 25.521519000000012,6.196915900000022 25.616445,6.0593889000000445 zM72.05201199999999,11.608560000000011 C72.553789,11.608503799999994 73.02355399999999,11.608630299999959 73.49332000000004,11.608503799999994 C75.18366700000001,11.607966199999964 76.248018,10.654669099999978 76.43745999999999,8.97155239999995 C76.573372,7.763060399999972 75.92020000000002,6.561082599999963 74.87999100000002,6.134334599999988 C73.963686,5.75856239999996 73.00642700000003,5.958354500000041 72.05220199999997,5.9052284000000554 C72.05201199999999,7.824313500000017 72.05201199999999,9.690146000000027 72.05201199999999,11.608560000000011 zM69.555676,13.711032000000046 L69.555676,13.350628400000005 C69.555676,10.284905200000026 69.555612,7.219340099999954 69.55580199999997,4.153585300000032 C69.55580199999997,3.751155199999971 69.55621300000001,3.7476450999999997 69.97127899999998,3.751471400000014 C71.407941,3.7647213000000193 72.85035500000004,3.703468199999975 74.27946499999996,3.8141792000000123 C76.31595800000002,3.9718814000000293 77.90992600000004,4.889761099999987 78.66443900000002,6.901437399999963 C79.43127600000003,8.945621800000026 78.846834,11.278647699999965 77.28863799999999,12.556772899999942 C76.370721,13.309708699999987 75.29044399999998,13.680516099999977 74.12705800000003,13.722479399999997 C72.64969500000001,13.775984999999991 71.16907700000002,13.739365900000053 69.68994399999997,13.740441099999998 C69.65986099999998,13.740504399999963 69.62977799999999,13.727792000000022 69.555676,13.711032000000046 zM39.64299,13.716376299999979 L39.64299,0.01733979999994517 L49.16441699999996,0.01733979999994517 L49.16441699999996,1.346187729999997 C49.16441699999996,1.640278579999972 49.144699,1.9360770499999944 49.169915,2.228017560000012 C49.195006000000035,2.518693170000006 49.07837000000001,2.5750763900000493 48.81106599999998,2.57355849999999 C46.932413999999994,2.562870040000007 45.053605000000005,2.5678980400000455 43.174890000000005,2.5678980400000455 L42.58062000000001,2.5678980400000455 L42.58062000000001,5.452518199999986 L42.93523600000003,5.452518199999986 C44.352179999999976,5.452518199999986 45.76918699999999,5.4606452000000445 47.18597299999999,5.445845800000029 C47.47242700000004,5.442873299999974 47.53941900000001,5.533946600000036 47.532876999999985,5.804636699999946 C47.515308000000005,6.526424099999986 47.52681000000001,7.248907300000042 47.52681000000001,8.006871199999978 L42.55929000000003,8.006871199999978 L42.55929000000003,13.716376299999979 L39.64299,13.716376299999979 zM14.92660699999999,14 C14.61155500000001,13.935458100000005 14.294448999999986,13.879549200000042 13.981831,13.804919700000028 C12.045256300000005,13.343070600000033 10.901336300000025,11.892443800000024 10.89962989999998,9.89841290000004 C10.89811309999999,7.987075399999981 10.899313899999981,6.075674599999957 10.899313899999981,4.164305399999989 L10.899313899999981,3.8217686000000413 L13.516963000000032,3.8217686000000413 L13.516963000000032,4.186757499999999 C13.516963000000032,5.993170999999961 13.52224000000001,7.799489699999981 13.514561000000015,9.605839999999944 C13.510959000000014,10.425183400000037 13.76145200000002,11.119048099999986 14.537263999999993,11.47559369999999 C15.378107999999997,11.862022799999977 16.23920800000002,11.84788739999999 17.01707399999998,11.29344709999998 C17.586884999999995,10.887506899999948 17.747919000000024,10.266026499999953 17.749119000000007,9.598345399999971 C17.752594999999985,7.802462200000036 17.750383,6.006578999999988 17.750383,4.210759100000018 L17.750383,3.8158551999999872 L20.33952899999997,3.8158551999999872 L20.33965599999999,4.169839400000001 C20.33965599999999,6.060274299999946 20.34054100000003,7.950646099999972 20.33937099999997,9.841081000000031 C20.338043999999968,12.122214099999951 18.919236000000012,13.690224299999954 16.645488999999998,13.929291700000022 C16.53324600000002,13.941118599999982 16.423340999999986,13.97574540000005 16.312330999999972,13.999746999999957 C15.85033900000002,14 15.388441,14 14.92660699999999,14 zM61.54548699999998,7.788358499999958 L66.36635100000001,7.788358499999958 C66.42825500000004,6.592230900000004 65.28117499999996,5.642159399999969 63.839741000000004,5.670335199999954 C62.56063700000004,5.695222199999989 61.45340399999998,6.707558800000015 61.54548699999998,7.788358499999958 zM63.674284,14 C63.24648300000001,13.913859799999955 62.81176199999999,13.852954599999975 62.39208199999996,13.737120699999991 C60.38807299999996,13.183882100000005 59.00557300000003,11.48795819999998 58.823747000000026,9.41518689999998 C58.65200100000004,7.460051900000053 59.21839899999998,5.803055500000028 60.78677099999999,4.569644799999992 C63.163374999999974,2.7005867799999805 67.834139,3.1245519000000286 68.761978,7.546824499999957 C68.82849599999997,7.863683700000024 68.86752200000001,8.188954500000023 68.88755700000002,8.512264699999946 C68.90891799999997,8.855592099999967 68.89236,9.201385999999957 68.89236,9.59853510000005 L61.527949000000035,9.59853510000005 C61.59206499999999,10.151331099999993 61.806565999999975,10.59578769999996 62.16247699999997,10.963432900000043 C62.97699799999998,11.804722500000025 63.99347499999999,11.963025600000037 65.09173299999998,11.770190500000012 C65.79170499999998,11.647209900000007 66.43779799999999,11.381168399999979 67.01923799999997,10.882637000000045 L68.204744,12.6217891 C67.89616999999998,12.828474899999947 67.61647800000003,13.047050799999965 67.309326,13.215188499999954 C66.54593399999999,13.633177000000046 65.71952999999996,13.853776799999991 64.854354,13.934762399999954 C64.753803,13.944154400000002 64.655527,13.97761109999999 64.55614500000001,13.999873500000035 C64.26207499999998,14 63.96819500000004,14 63.674284,14 zM55.72037399999999,7.790097800000012 C55.77197699999999,6.556117800000038 54.597151999999994,5.6137306000000535 53.109613999999965,5.672485499999993 C51.872284000000036,5.721310900000049 50.77238299999999,6.769887100000005 50.90437600000001,7.790097800000012 L55.72037399999999,7.790097800000012 zM53.030393000000004,14 C52.68269799999996,13.93533160000004 52.33143200000001,13.885715699999992 51.98797200000001,13.803307000000018 C49.29897,13.158330999999976 47.92882499999996,10.842223200000035 48.163771,8.283032000000048 C48.36057600000004,6.140216499999951 49.440000999999995,4.573597599999971 51.49605500000001,3.84836329999996 C54.36650399999996,2.8357737000000043 57.69534299999998,4.202885100000003 58.18650100000002,8.024991 C58.25131299999998,8.529973400000017 58.248185000000035,9.04371530000003 58.27902599999999,9.59872489999998 L50.866108999999994,9.59872489999998 C51.037981,10.540321500000005 51.51245499999999,11.200919200000044 52.33986900000002,11.552025700000058 C53.684417999999994,12.122688400000015 54.943962,11.838242499999978 56.131553,11.073384899999951 C56.201705000000004,11.028164500000003 56.26645400000001,10.974469200000044 56.33464700000002,10.925865199999976 C56.341409,10.921090100000015 56.35461799999996,10.925232700000038 56.402176,10.925232700000038 C56.765513,11.460414799999967 57.14063599999997,12.013084299999946 57.56218000000001,12.634153500000025 C57.17982000000001,12.87284150000005 56.827038000000016,13.131546599999979 56.441738999999984,13.325298699999962 C55.73291900000004,13.681717800000001 54.97085400000003,13.87069489999999 54.178989,13.936628199999973 C54.088802999999984,13.944154400000002 54.000923,13.978180400000042 53.91200100000003,13.9999368 L53.030393000000004,14 zM2.9364931999999726,5.452518199999986 C3.7955708000000072,5.452518199999986 4.611261500000012,5.453972799999974 5.426920699999982,5.451253299999962 C5.5838779000000045,5.4506840999999895 5.744405900000004,5.452012200000013 5.8970654999999965,5.42124339999998 C6.473038700000018,5.305535999999961 6.90681189999998,5.009990499999958 7.057638699999984,4.409222999999997 C7.298146299999985,3.4514038999999457 6.68810830000001,2.6239334199999576 5.697795900000017,2.5748550299999806 C5.237352299999998,2.552086710000026 4.775012699999991,2.5685304999999516 4.313526400000001,2.5680877800000417 C3.865975600000013,2.56755019000002 3.418329999999969,2.567961289999971 2.9568436000000133,2.567961289999971 C2.947648000000015,2.6671616099999937 2.9372515999999678,2.727687410000044 2.937188399999968,2.788181580000014 C2.936113999999975,3.6582793999999694 2.9364931999999726,4.528345599999966 2.9364931999999726,5.452518199999986 zM2.9566540000000145,11.124803400000019 C2.9948267999999985,11.137895200000003 3.0329363999999828,11.162402799999995 3.070887999999968,11.162402799999995 C3.992438800000002,11.163920599999983 4.915632700000003,11.196650099999943 5.835161099999993,11.153010799999947 C6.786700300000007,11.107821999999942 7.352529899999979,10.522644499999956 7.377715099999989,9.660230999999953 C7.403089899999998,8.793769699999984 6.880457500000034,8.168779200000017 5.948605100000009,8.056834999999978 C5.359517900000014,7.986063400000035 4.757853899999986,8.018508300000008 4.161814800000002,8.01012830000002 C3.76684640000002,8.004657599999973 3.3716883999999823,8.009116400000039 2.9566540000000145,8.009116400000039 L2.9566540000000145,11.124803400000019 zM0,0.008074350000015329 C2.224008000000026,0.010983639999949446 4.44886919999999,-0.022409899999956906 6.671802700000001,0.028565840000055687 C8.385344299999986,0.06790445000001455 9.727901900000006,1.2326307099999667 10.016947099999982,2.8235357300000032 C10.344070299999998,4.624446899999953 9.410321899999985,6.1621942000000445 7.969804300000021,6.574838500000055 C7.93321149999997,6.58530559999997 7.90341269999999,6.619268300000044 7.854243100000019,6.653610500000013 C9.227294700000016,7.046933299999978 10.046872300000018,7.956432999999947 10.277615500000024,9.319022300000029 C10.658142699999985,11.567173000000025 9.419075099999986,13.414474599999949 7.077989099999968,13.675836000000004 C6.558737899999983,13.733705500000042 6.031523499999992,13.732282499999997 5.507911499999977,13.735002000000009 C3.6719831999999997,13.744741800000043 1.83596,13.7444256 0,13.747967300000028 L0,0.008074350000015329 z" id="Fill-1" fill="#999999"/>
                    </g>
                </g>
            </g>
        </g>
    </g></g></svg>