<?xml version="1.0" encoding="UTF-8"?>
<svg width="79px" height="14px" viewBox="0 0 79 14" version="1.1" xmlns="http://www.w3.org/2000/svg" xmlns:xlink="http://www.w3.org/1999/xlink">
    <!-- Generator: sketchtool 49 (51002) - http://www.bohemiancoding.com/sketch -->
    <title>2A98DF2E-883B-4447-991F-C1EDB8EB081F</title>
    <desc>Created with sketchtool.</desc>
    <defs></defs>
    <g id="Page-1" stroke="none" stroke-width="1">
        <g id="Onboarding---1---Create-an-account---Filled" transform="translate(-547.000000, -793.000000)">
            <g id="Group-13" transform="translate(410.000000, 57.000000)">
                <g id="Group-14" transform="translate(50.000000, 729.000000)">
                    <g id="Stacked-Group">
                        <path d="M116.968966,13.0619187 C116.968966,12.3525589 116.968334,11.7023019 116.969914,11.0519817 C116.97004,10.9802615 116.98189,10.9085412 116.990327,10.8155073 L124.983421,10.8155073 C124.983421,11.4198798 124.990057,12.0145442 124.976437,12.6087658 C124.974352,12.6983212 124.886061,12.7926517 124.822893,12.8730365 C123.446555,14.6208848 122.068005,16.3669939 120.690656,18.1140201 C120.622652,18.2002867 120.561949,18.2924352 120.455994,18.4400498 L120.857251,18.4400498 C122.158254,18.4400498 123.459416,18.4455205 124.760546,18.435338 C125.002254,18.4334723 125.092504,18.4929229 125.085457,18.750711 C125.067761,19.3991655 125.079611,20.048537 125.079611,20.717072 L116.976802,20.717072 C116.976802,20.0695029 116.97162,19.4325906 116.983344,18.7960895 C116.984734,18.7163055 117.068411,18.6329797 117.125417,18.5603741 C118.447024,16.8762771 119.7704,15.193603 121.093271,13.5104231 C121.194265,13.381782 121.293141,13.2514334 121.43926,13.0618555 L116.968966,13.0619187 Z M112.616445,13.0593889 L108.181353,13.0593889 L108.181353,10.8114912 L116.199284,10.8114912 C116.199284,11.2356145 116.177986,11.6617933 116.20551,12.0849363 C116.230821,12.4750019 116.112226,12.7763344 115.866157,13.0825999 C114.532669,14.743233 113.220195,16.4205311 111.900863,18.0924534 C111.830047,18.1821353 111.762739,18.2745368 111.652455,18.420254 L116.252499,18.420254 L116.252499,20.7113166 L108.157053,20.7113166 C108.157053,20.0855356 108.147857,19.4600075 108.165743,18.8351435 C108.16884,18.7278794 108.276533,18.6160932 108.352404,18.5194543 C109.705959,16.7943427 111.062199,15.0714763 112.417049,13.3473766 C112.473423,13.275435 112.521519,13.1969159 112.616445,13.0593889 Z M159.052012,18.60856 C159.553789,18.6085038 160.023554,18.6086303 160.49332,18.6085038 C162.183667,18.6079662 163.248018,17.6546691 163.43746,15.9715524 C163.573372,14.7630604 162.9202,13.5610826 161.879991,13.1343346 C160.963686,12.7585624 160.006427,12.9583545 159.052202,12.9052284 C159.052012,14.8243135 159.052012,16.690146 159.052012,18.60856 Z M156.555676,20.711032 L156.555676,20.3506284 C156.555676,17.2849052 156.555612,14.2193401 156.555802,11.1535853 C156.555802,10.7511552 156.556213,10.7476451 156.971279,10.7514714 C158.407941,10.7647213 159.850355,10.7034682 161.279465,10.8141792 C163.315958,10.9718814 164.909926,11.8897611 165.664439,13.9014374 C166.431276,15.9456218 165.846834,18.2786477 164.288638,19.5567729 C163.370721,20.3097087 162.290444,20.6805161 161.127058,20.7224794 C159.649695,20.775985 158.169077,20.7393659 156.689944,20.7404411 C156.659861,20.7405044 156.629778,20.727792 156.555676,20.711032 Z M126.64299,20.7163763 L126.64299,7.0173398 L136.164417,7.0173398 L136.164417,8.34618773 C136.164417,8.64027858 136.144699,8.93607705 136.169915,9.22801756 C136.195006,9.51869317 136.07837,9.57507639 135.811066,9.5735585 C133.932414,9.56287004 132.053605,9.56789804 130.17489,9.56789804 L129.58062,9.56789804 L129.58062,12.4525182 L129.935236,12.4525182 C131.35218,12.4525182 132.769187,12.4606452 134.185973,12.4458458 C134.472427,12.4428733 134.539419,12.5339466 134.532877,12.8046367 C134.515308,13.5264241 134.52681,14.2489073 134.52681,15.0068712 L129.55929,15.0068712 L129.55929,20.7163763 L126.64299,20.7163763 Z M101.926607,21 C101.611555,20.9354581 101.294449,20.8795492 100.981831,20.8049197 C99.0452563,20.3430706 97.9013363,18.8924438 97.8996299,16.8984129 C97.8981131,14.9870754 97.8993139,13.0756746 97.8993139,11.1643054 L97.8993139,10.8217686 L100.516963,10.8217686 L100.516963,11.1867575 C100.516963,12.993171 100.52224,14.7994897 100.514561,16.60584 C100.510959,17.4251834 100.761452,18.1190481 101.537264,18.4755937 C102.378108,18.8620228 103.239208,18.8478874 104.017074,18.2934471 C104.586885,17.8875069 104.747919,17.2660265 104.749119,16.5983454 C104.752595,14.8024622 104.750383,13.006579 104.750383,11.2107591 L104.750383,10.8158552 L107.339529,10.8158552 L107.339656,11.1698394 C107.339656,13.0602743 107.340541,14.9506461 107.339371,16.841081 C107.338044,19.1222141 105.919236,20.6902243 103.645489,20.9292917 C103.533246,20.9411186 103.423341,20.9757454 103.312331,20.999747 C102.850339,21 102.388441,21 101.926607,21 Z M148.545487,14.7883585 L153.366351,14.7883585 C153.428255,13.5922309 152.281175,12.6421594 150.839741,12.6703352 C149.560637,12.6952222 148.453404,13.7075588 148.545487,14.7883585 Z M150.674284,21 C150.246483,20.9138598 149.811762,20.8529546 149.392082,20.7371207 C147.388073,20.1838821 146.005573,18.4879582 145.823747,16.4151869 C145.652001,14.4600519 146.218399,12.8030555 147.786771,11.5696448 C150.163375,9.70058678 154.834139,10.1245519 155.761978,14.5468245 C155.828496,14.8636837 155.867522,15.1889545 155.887557,15.5122647 C155.908918,15.8555921 155.89236,16.201386 155.89236,16.5985351 L148.527949,16.5985351 C148.592065,17.1513311 148.806566,17.5957877 149.162477,17.9634329 C149.976998,18.8047225 150.993475,18.9630256 152.091733,18.7701905 C152.791705,18.6472099 153.437798,18.3811684 154.019238,17.882637 L155.204744,19.6217891 C154.89617,19.8284749 154.616478,20.0470508 154.309326,20.2151885 C153.545934,20.633177 152.71953,20.8537768 151.854354,20.9347624 C151.753803,20.9441544 151.655527,20.9776111 151.556145,20.9998735 C151.262075,21 150.968195,21 150.674284,21 Z M142.720374,14.7900978 C142.771977,13.5561178 141.597152,12.6137306 140.109614,12.6724855 C138.872284,12.7213109 137.772383,13.7698871 137.904376,14.7900978 L142.720374,14.7900978 Z M140.030393,21 C139.682698,20.9353316 139.331432,20.8857157 138.987972,20.803307 C136.29897,20.158331 134.928825,17.8422232 135.163771,15.283032 C135.360576,13.1402165 136.440001,11.5735976 138.496055,10.8483633 C141.366504,9.8357737 144.695343,11.2028851 145.186501,15.024991 C145.251313,15.5299734 145.248185,16.0437153 145.279026,16.5987249 L137.866109,16.5987249 C138.037981,17.5403215 138.512455,18.2009192 139.339869,18.5520257 C140.684418,19.1226884 141.943962,18.8382425 143.131553,18.0733849 C143.201705,18.0281645 143.266454,17.9744692 143.334647,17.9258652 C143.341409,17.9210901 143.354618,17.9252327 143.402176,17.9252327 C143.765513,18.4604148 144.140636,19.0130843 144.56218,19.6341535 C144.17982,19.8728415 143.827038,20.1315466 143.441739,20.3252987 C142.732919,20.6817178 141.970854,20.8706949 141.178989,20.9366282 C141.088803,20.9441544 141.000923,20.9781804 140.912001,20.9999368 L140.030393,21 Z M89.9364932,12.4525182 C90.7955708,12.4525182 91.6112615,12.4539728 92.4269207,12.4512533 C92.5838779,12.4506841 92.7444059,12.4520122 92.8970655,12.4212434 C93.4730387,12.305536 93.9068119,12.0099905 94.0576387,11.409223 C94.2981463,10.4514039 93.6881083,9.62393342 92.6977959,9.57485503 C92.2373523,9.55208671 91.7750127,9.5685305 91.3135264,9.56808778 C90.8659756,9.56755019 90.41833,9.56796129 89.9568436,9.56796129 C89.947648,9.66716161 89.9372516,9.72768741 89.9371884,9.78818158 C89.936114,10.6582794 89.9364932,11.5283456 89.9364932,12.4525182 Z M89.956654,18.1248034 C89.9948268,18.1378952 90.0329364,18.1624028 90.070888,18.1624028 C90.9924388,18.1639206 91.9156327,18.1966501 92.8351611,18.1530108 C93.7867003,18.107822 94.3525299,17.5226445 94.3777151,16.660231 C94.4030899,15.7937697 93.8804575,15.1687792 92.9486051,15.056835 C92.3595179,14.9860634 91.7578539,15.0185083 91.1618148,15.0101283 C90.7668464,15.0046576 90.3716884,15.0091164 89.956654,15.0091164 L89.956654,18.1248034 Z M87,7.00807435 C89.224008,7.01098364 91.4488692,6.9775901 93.6718027,7.02856584 C95.3853443,7.06790445 96.7279019,8.23263071 97.0169471,9.82353573 C97.3440703,11.6244469 96.4103219,13.1621942 94.9698043,13.5748385 C94.9332115,13.5853056 94.9034127,13.6192683 94.8542431,13.6536105 C96.2272947,14.0469333 97.0468723,14.956433 97.2776155,16.3190223 C97.6581427,18.567173 96.4190751,20.4144746 94.0779891,20.675836 C93.5587379,20.7337055 93.0315235,20.7322825 92.5079115,20.735002 C90.6719832,20.7447418 88.83596,20.7444256 87,20.7479673 L87,7.00807435 Z" id="Fill-1"></path>
                    </g>
                </g>
            </g>
        </g>
    </g>
</svg>
