<?xml version="1.0" encoding="UTF-8"?>
<svg width="38px" height="38px" viewBox="0 0 38 38" version="1.1" xmlns="http://www.w3.org/2000/svg" xmlns:xlink="http://www.w3.org/1999/xlink">
    <!-- Generator: Sketch 49.2 (51160) - http://www.bohemiancoding.com/sketch -->
    <title>Group</title>
    <desc>Created with Sketch.</desc>
    <defs></defs>
    <g id="Symbols" stroke="none" stroke-width="1" fill="none" fill-rule="evenodd">
        <g id="google">
            <g id="Group">
                <rect id="button-bg-copy" fill="#FFFFFF" x="0" y="0" width="38" height="38" rx="3"></rect>
                <path d="M27.64,19.2045455 C27.64,18.5663636 27.5827273,17.9527273 27.4763636,17.3636364 L19,17.3636364 L19,20.845 L23.8436364,20.845 C23.635,21.97 23.0009091,22.9231818 22.0477273,23.5613636 L22.0477273,25.8195455 L24.9563636,25.8195455 C26.6581818,24.2527273 27.64,21.9454545 27.64,19.2045455 L27.64,19.2045455 Z" id="Shape" fill="#4285F4"></path>
                <path d="M19,28 C21.43,28 23.4672727,27.1940909 24.9563636,25.8195455 L22.0477273,23.5613636 C21.2418182,24.1013636 20.2109091,24.4204545 19,24.4204545 C16.6559091,24.4204545 14.6718182,22.8372727 13.9640909,20.71 L10.9572727,20.71 L10.9572727,23.0418182 C12.4381818,25.9831818 15.4818182,28 19,28 L19,28 Z" id="Shape" fill="#34A853"></path>
                <path d="M13.9640909,20.71 C13.7840909,20.17 13.6818182,19.5931818 13.6818182,19 C13.6818182,18.4068182 13.7840909,17.83 13.9640909,17.29 L13.9640909,14.9581818 L10.9572727,14.9581818 C10.3477273,16.1731818 10,17.5477273 10,19 C10,20.4522727 10.3477273,21.8268182 10.9572727,23.0418182 L13.9640909,20.71 L13.9640909,20.71 Z" id="Shape" fill="#FBBC05"></path>
                <path d="M19,13.5795455 C20.3213636,13.5795455 21.5077273,14.0336364 22.4404545,14.9254545 L25.0218182,12.3440909 C23.4631818,10.8918182 21.4259091,10 19,10 C15.4818182,10 12.4381818,12.0168182 10.9572727,14.9581818 L13.9640909,17.29 C14.6718182,15.1627273 16.6559091,13.5795455 19,13.5795455 L19,13.5795455 Z" id="Shape" fill="#EA4335"></path>
                <polygon id="Shape" points="10 10 28 10 28 28 10 28"></polygon>
            </g>
        </g>
    </g>
</svg>