<?xml version="1.0" encoding="UTF-8"?>
<svg width="39px" height="28px" viewBox="0 0 39 28" version="1.1" xmlns="http://www.w3.org/2000/svg" xmlns:xlink="http://www.w3.org/1999/xlink">
    <!-- Generator: sketchtool 49 (51002) - http://www.bohemiancoding.com/sketch -->
    <title>4AAA819D-CB49-45B0-A035-B793645D07AD</title>
    <desc>Created with sketchtool.</desc>
    <defs></defs>
    <g id="Page-1" stroke="none" stroke-width="1">
        <g id="Onboarding---1---Create-an-account---Filled" transform="translate(-460.000000, -786.000000)">
            <g id="Group-13" transform="translate(410.000000, 57.000000)">
                <g id="Group-14" transform="translate(50.000000, 729.000000)">
                    <g id="Stacked-Group">
                        <path d="M0,0.461582606 L5.92493813,0.461582606 L5.92493813,16.6180203 C5.92493813,19.1813589 7.0654362,20.693945 7.99333185,21.3421364 C7.02679619,22.1966105 4.09810624,22.9626777 1.88475071,21.1162636 C0.589569036,20.0358748 0,18.2385616 0,16.5590405 L0,0.461582606 Z M37.0089275,13.8875794 L37.0089275,12.1884682 L38.8260376,12.1884682 L38.8260376,6.24645547 L36.8349651,6.24645547 C36.0713512,2.6616242 32.9397395,0 29.1895992,0 C24.878767,0 21.370271,3.56524111 21.370271,7.94560856 L21.370271,21.823351 C22.5977709,22.0001648 24.0669562,21.803719 25.313776,20.7331672 C26.6089165,19.6528621 27.1985679,17.8555071 27.1985679,16.175986 L27.1985679,15.6555492 L30.1561349,15.6555492 L30.1561349,9.7036577 L27.1985679,9.7036577 L27.1985679,7.90630267 C27.1985679,6.78669172 28.0877824,5.8830748 29.1895992,5.8830748 C30.2914573,5.8830748 31.1806718,6.78669172 31.1806718,7.90630267 L31.1806718,13.8679474 C31.1806718,18.2581936 34.6892502,21.823351 39,21.823351 L39,15.8912171 C37.8981419,15.8912171 37.0089275,14.997479 37.0089275,13.8875794 Z M14.5947996,6.22682345 L14.5947996,14.9778051 C14.5947996,15.4688985 14.1792342,15.8715851 13.6862652,15.8715851 C13.1932961,15.8715851 12.7873701,15.4688985 12.7873701,14.9778051 L12.7873701,6.22682345 L6.93015498,6.22682345 L6.93015498,16.4902657 C6.93015498,18.3367636 7.53904402,20.6742711 10.3613298,21.4403802 C13.1740173,22.1966105 14.788082,20.6153751 14.788082,20.6153751 C14.6334396,21.6564161 13.6862652,22.4225252 12.1301193,22.579665 C10.95094,22.6974571 9.45279533,22.2947706 8.70854269,21.9804909 L8.70854269,27.421657 C10.6126546,28.0011572 12.6230471,28.1876823 14.6141608,27.7850376 C18.2000192,27.0877452 20.4616954,24.0430665 20.4616954,19.9769787 L20.4616954,6.18751756 L14.5947996,6.18751756 L14.5947996,6.22682345 Z" id="Fill-3"></path>
                    </g>
                </g>
            </g>
        </g>
    </g>
</svg>
